<svg xmlns="http://www.w3.org/2000/svg" viewBox="0 0 64 64">
  <rect width="64" height="64" rx="14" fill="#1C1815"/>
  <path d="M22 9 Q25 13 22 17" stroke="#F3ECDD" stroke-opacity="0.75" stroke-width="2.6" fill="none" stroke-linecap="round"/>
  <path d="M29 8 Q32 13 29 18" stroke="#F3ECDD" stroke-opacity="0.75" stroke-width="2.6" fill="none" stroke-linecap="round"/>
  <path d="M36 9 Q39 13 36 17" stroke="#F3ECDD" stroke-opacity="0.75" stroke-width="2.6" fill="none" stroke-linecap="round"/>
  <path d="M15 22 L42 22 L38 42 L19 42 Z" fill="#F3ECDD"/>
  <rect x="12" y="41" width="34" height="4.5" rx="2.25" fill="#F3ECDD"/>
  <ellipse cx="28.5" cy="22" rx="13.5" ry="3" fill="#7A2E22"/>
  <ellipse cx="28.5" cy="22" rx="13.5" ry="3" fill="none" stroke="#F3ECDD" stroke-width="1.4"/>
  <path d="M40 24 A8 9 0 1 1 40 40" stroke="#F3ECDD" stroke-width="4.2" fill="none" stroke-linecap="round"/>
  <g transform="rotate(-18 28.5 33)">
    <ellipse cx="28.5" cy="33" rx="5" ry="7.4" fill="#B5651D"/>
    <line x1="28.5" y1="27.5" x2="28.5" y2="38.5" stroke="#1C1815" stroke-width="1.6"/>
  </g>
</svg>
